<svg width="84" height="84" viewBox="0 0 84 84" fill="none" xmlns="http://www.w3.org/2000/svg">
<g clip-path="url(#clip0_1_2)">
<path d="M72.7985 2H11C6.02944 2 2 6.02944 2 11V72.7985C2 77.7691 6.02944 81.7985 11 81.7985H72.7985C77.7691 81.7985 81.7985 77.7691 81.7985 72.7985V11C81.7985 6.02944 77.7691 2 72.7985 2Z" fill="#1E0C06" stroke="#F5F5F5" stroke-width="4"/>
<path d="M71.3092 2.01434C34.916 31.2901 -21.7554 76.9495 82.1869 51.1654" stroke="#F5F5F5" stroke-opacity="0.25" stroke-linecap="round"/>
<path d="M77.3524 2.41724C51.0311 26.5899 4.83448 68.0863 82.1869 45.1222" stroke="#F5F5F5" stroke-opacity="0.25" stroke-linecap="round"/>
<path d="M81.7841 8.05756C63.3861 24.9784 37.6288 55.3554 81.7841 39.8849" stroke="#F5F5F5" stroke-opacity="0.25" stroke-linecap="round"/>
<path d="M82.1869 21.3525C74.5322 27.3957 59.2229 44.3166 82.1869 33.036" stroke="#F5F5F5" stroke-opacity="0.25" stroke-linecap="round"/>
<path d="M2.0144 59.2229C0.805767 53.8512 6.28492 40.9323 20.1439 32.2301C37.4676 21.3525 40.2878 26.5899 60.8345 2.01434" stroke="#F5F5F5" stroke-opacity="0.25" stroke-linecap="round"/>
<path d="M2.0144 35.4532C27.7986 24.1726 66.1525 1.04749 13.295 2.01439" stroke="#F5F5F5" stroke-opacity="0.25" stroke-linecap="round"/>
<path d="M7.65461 2.41724C23.7697 5.37167 51.5683 10.8777 1.61145 30.2158" stroke="#F5F5F5" stroke-opacity="0.25" stroke-linecap="round"/>
<path d="M1.61145 10.8777C15.7122 11.952 38.6762 12.4892 1.61145 22.1583" stroke="#F5F5F5" stroke-opacity="0.25" stroke-linecap="round"/>
<path d="M81.7841 61.2373C72.3836 61.2373 48.5064 61.6402 39.4819 69.6978C30.4575 77.7553 10.7433 65.1318 1.61145 57.6115" stroke="#F5F5F5" stroke-opacity="0.25" stroke-linecap="round"/>
<path d="M47.9424 81.7841C51.2997 75.0695 54.7913 62.0431 81.7841 66.8777" stroke="#F5F5F5" stroke-opacity="0.25" stroke-linecap="round"/>
<path d="M61.6403 81.7841C62.3117 75.3381 64.4604 64.0575 81.7841 72.115" stroke="#F5F5F5" stroke-opacity="0.25" stroke-linecap="round"/>
<path d="M2.41724 70.5035C12.0863 70.7721 36.2589 75.3381 14.5036 81.7841" stroke="#F5F5F5" stroke-opacity="0.25" stroke-linecap="round"/>
<path d="M6 76.2925C10.9627 75.7123 22.3771 75.7123 11.3598 79Z" fill="#1E0C06"/>
<path d="M6 76.2925C10.9627 75.7123 22.3771 75.7123 11.3598 79" stroke="#F5F5F5" stroke-opacity="0.25" stroke-linecap="round"/>
<path d="M13.9688 38.6562V17H23.2109C25.5847 17 27.41 17.5053 28.685 18.5159C29.9606 19.5059 30.5984 20.8672 30.5984 22.5997C30.5984 23.7753 30.3433 24.7653 29.833 25.5697C29.3423 26.3741 28.6753 26.9928 27.8316 27.426C26.9879 27.859 26.0755 28.0756 25.0945 28.0756L25.6242 27.1475C26.8014 27.1475 27.8413 27.3641 28.7439 27.7972C29.6466 28.2303 30.3627 28.8697 30.8924 29.7153C31.4227 30.5403 31.6875 31.5716 31.6875 32.8091C31.6875 34.6653 31.02 36.109 29.686 37.1403C28.371 38.151 26.409 38.6562 23.7995 38.6562H13.9688ZM16.912 36.1503H23.6817C25.3102 36.1503 26.556 35.8616 27.4197 35.2841C28.2829 34.7066 28.7148 33.799 28.7148 32.5615C28.7148 31.3034 28.2829 30.3856 27.4197 29.8081C26.556 29.2306 25.3102 28.9419 23.6817 28.9419H16.6471V26.4359H22.946C24.4373 26.4359 25.595 26.1472 26.4187 25.5697C27.243 24.9922 27.6548 24.1259 27.6548 22.9709C27.6548 21.8159 27.243 20.9497 26.4187 20.3722C25.595 19.7947 24.4373 19.5059 22.946 19.5059H16.912V36.1503Z" fill="white"/>
<path d="M36.6094 38.6562V17H39.5625V38.6562H36.6094Z" fill="white"/>
<path d="M55.8351 38.6563C54.2118 38.6563 52.7007 38.384 51.3009 37.8396C49.9211 37.2952 48.7241 36.539 47.7099 35.5711C46.6956 34.5831 45.9043 33.4338 45.3366 32.123C44.7683 30.8124 44.4844 29.3808 44.4844 27.8281C44.4844 26.2755 44.7683 24.8438 45.3366 23.5331C45.9043 22.2225 46.6956 21.0832 47.7099 20.1154C48.7241 19.1273 49.9211 18.3611 51.3009 17.8166C52.6806 17.2722 54.1916 17 55.8351 17C57.458 17 58.9489 17.2722 60.3085 17.8166C61.6877 18.3409 62.8847 19.0971 63.8989 20.0851C64.9339 21.053 65.7252 22.1923 66.2728 23.5029C66.8405 24.8136 67.125 26.2553 67.125 27.8281C67.125 29.4009 66.8405 30.8427 66.2728 32.1533C65.7252 33.464 64.9339 34.6133 63.8989 35.6014C62.8847 36.5692 61.6877 37.3254 60.3085 37.8698C58.9489 38.3941 57.458 38.6563 55.8351 38.6563ZM55.8351 35.9643C57.0114 35.9643 58.0973 35.7627 59.0908 35.3594C60.1057 34.9561 60.978 34.3915 61.7084 33.6656C62.4588 32.9195 63.0366 32.0525 63.4429 31.0644C63.8687 30.0764 64.0817 28.9976 64.0817 27.8281C64.0817 26.6586 63.8687 25.5798 63.4429 24.5918C63.0366 23.6037 62.4588 22.7468 61.7084 22.0209C60.978 21.2748 60.1057 20.7001 59.0908 20.2968C58.0973 19.8935 57.0114 19.6919 55.8351 19.6919C54.6382 19.6919 53.5322 19.8935 52.518 20.2968C51.5238 20.7001 50.6515 21.2748 49.901 22.0209C49.1505 22.7468 48.5621 23.6037 48.1363 24.5918C47.73 25.5798 47.5271 26.6586 47.5271 27.8281C47.5271 28.9976 47.73 30.0764 48.1363 31.0644C48.5621 32.0525 49.1505 32.9195 49.901 33.6656C50.6515 34.3915 51.5238 34.9561 52.518 35.3594C53.5322 35.7627 54.6382 35.9643 55.8351 35.9643Z" fill="white"/>
<path d="M21.72 64.25C20.319 64.25 19.023 64.0117 17.832 63.5351C16.6586 63.0402 15.634 62.3527 14.7584 61.4728C13.9002 60.5747 13.2259 59.5298 12.7355 58.3383C12.2452 57.1467 12 55.8361 12 54.4062C12 52.9764 12.2452 51.6657 12.7355 50.4742C13.2259 49.2827 13.909 48.247 14.7846 47.3671C15.6603 46.4689 16.6849 45.7815 17.8583 45.3049C19.0491 44.8099 20.3451 44.5625 21.7461 44.5625C23.1651 44.5625 24.4699 44.8191 25.6604 45.3324C26.8689 45.8273 27.8935 46.5697 28.7344 47.5596L27.0266 49.2919C26.3261 48.522 25.538 47.9537 24.6624 47.5871C23.7868 47.2021 22.8497 47.0096 21.8517 47.0096C20.8183 47.0096 19.8551 47.193 18.9615 47.5596C18.0859 47.9262 17.3241 48.4395 16.6761 49.0994C16.0281 49.7593 15.5202 50.5476 15.1525 51.4641C14.8021 52.3623 14.627 53.3431 14.627 54.4062C14.627 55.4694 14.8021 56.4593 15.1525 57.3759C15.5202 58.2741 16.0281 59.0531 16.6761 59.7131C17.3241 60.373 18.0859 60.8863 18.9615 61.2529C19.8551 61.6195 20.8183 61.8028 21.8517 61.8028C22.8497 61.8028 23.7868 61.6195 24.6624 61.2529C25.538 60.868 26.3261 60.2813 27.0266 59.4931L28.7344 61.2254C27.8935 62.2153 26.8689 62.9669 25.6604 63.4801C24.4699 63.9934 23.1564 64.25 21.72 64.25Z" fill="white"/>
<path d="M36.9927 63.2656L30.7031 44.5625H33.4717L39.251 61.8228H37.853L43.8477 44.5625H46.3202L52.1802 61.8228H50.8362L56.6962 44.5625H59.25L52.9598 63.2656H50.1373L44.6541 47.2611H45.3797L39.8693 63.2656H36.9927Z" fill="white"/>
<path d="M65.7782 63.2656V46.887H59.25V44.5625H75V46.887H68.4712V63.2656H65.7782Z" fill="white"/>
</g>
<defs>
<clipPath id="clip0_1_2">
<rect width="84" height="84" fill="white"/>
</clipPath>
</defs>
</svg>
